<svg xmlns="http://www.w3.org/2000/svg" width="52.284" height="21.388" viewBox="0 0 52.284 21.388">
  <g id="Beurre" transform="translate(-467.631 481.516)">
    <path id="path444" d="M514.568-480.065v16.952H475.849v-16.952l.695-1.451h37.428l.6,1.451" fill="#f9e099"/>
    <path id="path446" d="M490.071-463.114h-7.62a4.39,4.39,0,0,0,3.883-2.995H479.8a5.411,5.411,0,0,1-.673-2.653h.437l.073.007h7.205a7.036,7.036,0,0,0-.093-1.124,5.322,5.322,0,0,1,2.083,1.28,5.271,5.271,0,0,1,1.541,3.728,5.187,5.187,0,0,1-.3,1.757m-5.265-2.547,0-.007h0a4.755,4.755,0,0,0,.289-.441,4.253,4.253,0,0,1-.293.448m.971-3.123v0h0m0-.039v0m0-.032a.121.121,0,0,0,0-.021.114.114,0,0,1,0,.021m0-.031v0m0-.029a.16.16,0,0,0,0-.025.16.16,0,0,1,0,.025m0-.029a5.78,5.78,0,0,0-.151-1.173h0a5.78,5.78,0,0,1,.151,1.173" fill="#e5bb72"/>
    <path id="path448" d="M482.339-465.916l-.1-.192h-2.779a.358.358,0,0,1-.3-.544,1.583,1.583,0,0,1-.331-.985l0-.036.008-.087.023-.123.084-.189-.057-.029-.039-.025-.037-.033-.025-.032-.024-.037-.019-.036-.015-.035-.008-.031,0-.025-.005-.048.008-.071.019-.06.061-.1.032-.032.08-.059.157-.036h.487l.073.007h2.815v-5.581h-9.24a3.72,3.72,0,0,0-2.393.905,5.4,5.4,0,0,0-1.528,2.179,6.843,6.843,0,0,0-.469,2.527c0,3.1,1.964,5.612,4.391,5.612h9.24v-2.728l-.112-.075" fill="#f9e099"/>
    <path id="path450" d="M478.87-467.883l.021-.219a.36.36,0,0,1-.172-.3.36.36,0,0,1,.2-.319v0c0-3.1-1.965-5.611-4.391-5.611s-4.388,2.513-4.388,5.611,1.964,5.612,4.388,5.612c2.136,0,3.912-1.945,4.308-4.524l.033-.245" fill="#f4d29a"/>
    <path id="path452" d="M479.464-466.108h.263a5.814,5.814,0,0,1-.579,1.077,5.058,5.058,0,0,1-.659.787,4.638,4.638,0,0,1-.661.527,3.523,3.523,0,0,1-.659.344,3.5,3.5,0,0,1-.659.2,3.517,3.517,0,0,1-.661.064,3.517,3.517,0,0,1-.661-.064c-2.108-.407-3.729-2.735-3.729-5.548s1.621-5.14,3.732-5.545a3.382,3.382,0,0,1,.659-.064,3.444,3.444,0,0,1,.667.064,3.383,3.383,0,0,1,.653.195,3.7,3.7,0,0,1,.659.345,4.112,4.112,0,0,1,.661.524,4.715,4.715,0,0,1,.659.785,5.726,5.726,0,0,1,.587,1.087,6.834,6.834,0,0,1,.505,2.58h-.6l-.073-.007h-.487l-.157.036-.08.059-.032.032-.061.1-.019.06-.008.071.005.048,0,.025.008.031.015.035.019.036.024.037.025.032.037.033.039.025.057.029-.084.189-.023.123-.008.087,0,.036a1.583,1.583,0,0,0,.331.985.358.358,0,0,0,.3.544" fill="#f9e099"/>
    <path id="path454" d="M481.052-466.108a5.7,5.7,0,0,1-.5.956l0,0a5.3,5.3,0,0,1-.74.905,4.235,4.235,0,0,1-.661.525,3.606,3.606,0,0,1-.659.344,3.437,3.437,0,0,1-.659.2,3.511,3.511,0,0,1-.659.064,3.5,3.5,0,0,1-.661-.064,3.557,3.557,0,0,1-.661-.195,5.637,5.637,0,0,1-3.068-5.353,5.636,5.636,0,0,1,3.068-5.352,3.561,3.561,0,0,1,.667-.193,3.336,3.336,0,0,1,.656-.064,3.391,3.391,0,0,1,.661.064h0a3.38,3.38,0,0,1,.653.195,3.607,3.607,0,0,1,.659.345,4.1,4.1,0,0,1,.661.524,4.827,4.827,0,0,1,.693.835,6.55,6.55,0,0,1,1.057,3.617h-1.924l-.073-.007h-.487l-.157.036-.08.059-.032.032-.061.1-.019.06-.008.071.005.048,0,.025.008.031.015.035.019.036.024.037.025.032.037.033.039.025.057.029-.084.189-.023.123-.008.087,0,.036a1.583,1.583,0,0,0,.331.985.358.358,0,0,0,.3.544h1.588" fill="#f4d29a"/>
    <path id="path456" d="M478.746-468.535l.061-.1.032-.032.08-.059.157-.036h.487l.073.007h3.244a6.929,6.929,0,0,0-.429-2.4,5.618,5.618,0,0,0-1.089-1.815v0a4.468,4.468,0,0,0-.891-.761,3.725,3.725,0,0,0-.661-.347,3.526,3.526,0,0,0-.659-.193,3.389,3.389,0,0,0-.661-.064,3.328,3.328,0,0,0-.653.064h0a3.441,3.441,0,0,0-.664.195,3.606,3.606,0,0,0-.659.345,5.919,5.919,0,0,0-2.409,5.005,5.924,5.924,0,0,0,2.409,5.008,3.523,3.523,0,0,0,.659.344,3.46,3.46,0,0,0,.661.2,3.489,3.489,0,0,0,.659.064,3.5,3.5,0,0,0,.661-.064,3.524,3.524,0,0,0,.659-.195,3.627,3.627,0,0,0,.661-.345,4.561,4.561,0,0,0,.964-.844v0a5.627,5.627,0,0,0,.94-1.544h-2.911a.358.358,0,0,1-.3-.544,1.583,1.583,0,0,1-.331-.985l0-.036.008-.087.023-.123.084-.189-.057-.029-.039-.025-.037-.033-.025-.032-.024-.037-.019-.036-.015-.035-.008-.031,0-.025-.005-.048.008-.071.019-.06" fill="#f9e099"/>
    <path id="path458" d="M483.695-466.108a5.609,5.609,0,0,1-1.132,1.755l-.112.109a4.121,4.121,0,0,1-1.32.872,3.574,3.574,0,0,1-.66.195,3.5,3.5,0,0,1-.661.064,3.489,3.489,0,0,1-.659-.064,3.463,3.463,0,0,1-.661-.2,3.894,3.894,0,0,1-.661-.344,4.357,4.357,0,0,1-.656-.525,6.222,6.222,0,0,1-1.753-4.483,6.212,6.212,0,0,1,1.753-4.479,4.132,4.132,0,0,1,.656-.527,3.909,3.909,0,0,1,.661-.345,3.46,3.46,0,0,1,.661-.195,3.382,3.382,0,0,1,.659-.064,3.443,3.443,0,0,1,.667.064,3.48,3.48,0,0,1,.655.195,4.136,4.136,0,0,1,1.312.861l.008.008a6.227,6.227,0,0,1,1.749,4.452h-4.564l-.073-.007h-.487l-.157.036-.08.059-.032.032-.061.1-.019.06-.008.071.005.048,0,.025.008.031.015.035.019.036.024.037.025.032.037.033.039.025.057.029-.084.189-.023.123-.008.087,0,.036a1.583,1.583,0,0,0,.331.985.358.358,0,0,0,.3.544h4.231" fill="#f4d29a"/>
    <path id="path460" d="M485.013-466.108c-.063.149-.131.3-.2.441a4.7,4.7,0,0,1-2.359,2.295,3.532,3.532,0,0,1-.659.195,3.489,3.489,0,0,1-.659.064,3.542,3.542,0,0,1-.663-.064,3.65,3.65,0,0,1-.661-.195,3.861,3.861,0,0,1-.661-.345,4.408,4.408,0,0,1-.659-.527,4.826,4.826,0,0,1-.659-.784,6.539,6.539,0,0,1-1.091-3.7,6.527,6.527,0,0,1,1.091-3.695,4.736,4.736,0,0,1,.659-.787,4.209,4.209,0,0,1,.659-.524,3.97,3.97,0,0,1,.661-.347,3.533,3.533,0,0,1,.667-.193,3.361,3.361,0,0,1,.657-.064,3.411,3.411,0,0,1,.661.064h0a3.324,3.324,0,0,1,.653.195,4.552,4.552,0,0,1,2.143,1.905,6.61,6.61,0,0,1,.928,3.416h-5.885l-.073-.007h-.487l-.157.036-.08.059-.032.032-.061.1-.019.06-.008.071.005.048,0,.025.008.031.015.035.019.036.024.037.025.032.037.033.039.025.057.029-.084.189-.023.123-.008.087,0,.036a1.583,1.583,0,0,0,.331.985.358.358,0,0,0,.3.544h5.549" fill="#f9e099"/>
    <path id="path462" d="M485.1-466.108h1.235a4.39,4.39,0,0,1-3.883,2.995c-2.425,0-4.388-2.512-4.388-5.612a6.869,6.869,0,0,1,.468-2.527,5.4,5.4,0,0,1,1.532-2.179,3.715,3.715,0,0,1,2.388-.9c2.416,0,4.377,2.495,4.391,5.58h-1.065v-.028c0-2.447-1.487-4.432-3.325-4.432a2.484,2.484,0,0,0-.891.165,3.531,3.531,0,0,0-1.869,1.8,5.482,5.482,0,0,0-.565,2.469c0,2.448,1.489,4.431,3.325,4.431a3.135,3.135,0,0,0,2.648-1.756" fill="#f4d29a"/>
    <path id="path464" d="M485.1-466.108a4.753,4.753,0,0,1-.289.441,3,3,0,0,1-2.247,1.313h-.112l-.167-.005h-.005l-.167-.019-.159-.025a2.64,2.64,0,0,1-.472-.143l-.047-.02-.312-.159-.339-.229-.161-.133-.071-.067a4.03,4.03,0,0,1-.749-.956h5.3" fill="#f4d29a"/>
    <path id="path466" d="M485.776-468.783v.028h-6.14l-.073-.007h-.437v-.021a5.735,5.735,0,0,1,.06-.839l.02-.121c.019-.121.041-.24.071-.357l.052-.2a4.955,4.955,0,0,1,.407-1.031,4.2,4.2,0,0,1,.336-.541l.091-.117.087-.107.255-.272a3.027,3.027,0,0,1,.367-.309,3.263,3.263,0,0,1,.4-.245l.088-.043.055-.023.144-.057.107-.037.295-.077.148-.025h0l.169-.019.161-.007h.008a2.868,2.868,0,0,1,2.143,1.044,5.13,5.13,0,0,1,1.183,3.388" fill="#f4d29a"/>
    <path id="path468" d="M485.776-468.755h-6.14l-.073-.007h-.437v-.021a5.735,5.735,0,0,1,.06-.839l.02-.121c.019-.121.041-.24.071-.357l.052-.2a4.955,4.955,0,0,1,.407-1.031,4.2,4.2,0,0,1,.336-.541l.091-.117.087-.107.255-.272a3.027,3.027,0,0,1,.367-.309,3.263,3.263,0,0,1,.4-.245l.088-.043.055-.023.144-.057.107-.037.295-.077.148-.025h0l.169-.019.161-.007h.008a2.868,2.868,0,0,1,2.143,1.044,5.13,5.13,0,0,1,1.183,3.388v.028" fill="#e6b073"/>
    <path id="path470" d="M482.451-464.352h0l-.167-.005h-.005l-.167-.019-.159-.025c-.035-.007-.068-.015-.1-.023a.008.008,0,0,1-.005,0,2.663,2.663,0,0,1-.365-.119l-.047-.02-.312-.159-.339-.229-.161-.133-.071-.067a4.029,4.029,0,0,1-.749-.956h5.3a4.749,4.749,0,0,1-.289.441A3.245,3.245,0,0,1,483.3-464.5h0l-.016.005-.007,0-.009,0a2.6,2.6,0,0,1-.7.133h-.112" fill="#e6b073"/>
    <path id="path472" d="M514.568-480.065H475.849l.695-1.451h37.428l.6,1.451" fill="#f7ecad"/>
    <path id="path474" d="M493.773-463.114h20.795v-16.952H493.773Z" fill="#e5bb72"/>
    <path id="path476" d="M514.568-480.065H493.773v-1.451h20.2l.6,1.451" fill="#e6c580"/>
    <path id="path478" d="M470.24-470.984a1.087,1.087,0,0,0,1.088,1.088h5.057a1.09,1.09,0,0,0,1.091-1.088,1.091,1.091,0,0,0-1.091-1.089h-5.057a1.089,1.089,0,0,0-1.088,1.089" fill="#f7ecad"/>
    <path id="path480" d="M519.915-461.448H467.631v-1.665h52.284v1.665" fill="#beb8be"/>
    <path id="path482" d="M518.625-460.128H468.919v-1.32h49.707v1.32" fill="#9ca2a9"/>
    <path id="path484" d="M471.94-461.448h7.82v-1.665h-7.82v1.665" fill="#cccfd5"/>
  </g>
</svg>
