<svg xmlns="http://www.w3.org/2000/svg" width="25.402" height="36.62" viewBox="0 0 25.402 36.62">
  <g id="biere" transform="translate(-544.876 352.428)">
    <path id="path3632" d="M570.279-346.555v28.965H555.432v-28.965h14.847" fill="#948240"/>
    <path id="path3634" d="M569.3-348.339H556.524v1.784H569.3v-1.784" fill="#ddc73a"/>
    <path id="path3636" d="M569.3-317.593H556.524v1.784H569.3v-1.784" fill="#ddc73a"/>
    <path id="path3638" d="M570.279-334.694h-2.552a5.532,5.532,0,0,0-4.872-2.911,5.53,5.53,0,0,0-4.871,2.911h-2.552v5.24h2.552a5.522,5.522,0,0,0,4.871,2.911,5.524,5.524,0,0,0,4.872-2.911h2.552v-5.24" fill="#e7d371"/>
    <path id="path3640" d="M559.9-341.011c-.633,4-2.363,7.536-2.363,13.784,0,2.471.729,11.419.729,11.419H546.88s.735-8.948.735-11.419c0-6.248-1.732-9.784-2.363-13.784a45.27,45.27,0,0,1,0-11.417H559.9a45.481,45.481,0,0,1,0,11.417" fill="#dee5e9"/>
    <path id="path3642" d="M559.393-346.046c.011-1.6-.065-3.072-.153-4.184H545.907c-.087,1.112-.161,2.58-.152,4.184h13.639" fill="#f0f1ea"/>
    <path id="path3644" d="M546.989-337.262a36.733,36.733,0,0,1,1.5,10.035c0,1.713-.336,6.364-.555,9.2h9.281c-.216-2.836-.552-7.487-.552-9.2a36.9,36.9,0,0,1,1.495-10.035c.347-1.333.675-2.593.877-3.885a34.057,34.057,0,0,0,.363-5.263H545.752a33.883,33.883,0,0,0,.36,5.263c.205,1.292.533,2.552.877,3.885" fill="#f1b364"/>
    <path id="path3646" d="M551.172-352.428v9.732a1.494,1.494,0,0,1-1.495,1.489,1.484,1.484,0,0,1-1.052-.437,1.481,1.481,0,0,1-.435-1.052v-9.732h2.981" fill="#fff"/>
  </g>
</svg>
