<svg xmlns="http://www.w3.org/2000/svg" width="511" height="287" viewBox="0 0 511 287">
  <g id="buche" transform="translate(0 -112)">
    <path id="Tracé_1" data-name="Tracé 1" d="M447.5,160h-160a7.439,7.439,0,0,0-.888.057l-22.27-40.085A15.509,15.509,0,0,0,250.793,112H224.438a15.5,15.5,0,0,0-15.4,17.212L212.454,160H63.5C27.893,160,0,212.491,0,279.5S27.893,399,63.5,399h384c35.607,0,63.5-52.491,63.5-119.5S483.107,160,447.5,160ZM30.61,355.342C20.544,335.209,15,308.274,15,279.5s5.544-55.709,15.61-75.842C39.717,185.445,51.705,175,63.5,175s23.783,10.445,32.89,28.658C106.456,223.791,112,250.726,112,279.5s-5.544,55.709-15.61,75.842C87.283,373.555,75.295,384,63.5,384S39.717,373.555,30.61,355.342ZM447.5,384H94.757C114.147,363.769,127,324.982,127,279.5S114.147,195.231,94.757,175H214.12l1.925,17.328a7.5,7.5,0,0,0,14.908-1.656l-7.013-63.116a.5.5,0,0,1,.5-.556h26.355a.5.5,0,0,1,.437.257l37.714,67.886a7.5,7.5,0,1,0,13.112-7.285L294.913,175H447.5c11.8,0,23.783,10.445,32.89,28.658C490.456,223.791,496,250.726,496,279.5s-5.544,55.709-15.61,75.842C471.283,373.555,459.3,384,447.5,384Z" fill="#fff"/>
    <path id="Tracé_2" data-name="Tracé 2" d="M48.313,302.621A198.678,198.678,0,0,1,47,279.5C47,235.1,59.657,215,63.5,215a7.5,7.5,0,0,0,0-15c-7,0-16.863,4.548-24.086,26.217C34.633,240.56,32,259.483,32,279.5a213.55,213.55,0,0,0,1.417,24.875A7.5,7.5,0,0,0,40.856,311a7.617,7.617,0,0,0,.887-.053A7.5,7.5,0,0,0,48.313,302.621Z" fill="#fff"/>
    <path id="Tracé_3" data-name="Tracé 3" d="M87.586,332.783C92.367,318.439,95,299.517,95,279.5a204.154,204.154,0,0,0-2.6-33.225,7.5,7.5,0,0,0-14.8,2.451A189.061,189.061,0,0,1,80,279.5C80,323.895,67.343,344,63.5,344c-.736,0-4.279-1.935-8.17-11.4a7.5,7.5,0,0,0-13.874,5.7C48.487,355.409,57.325,359,63.5,359,70.5,359,80.363,354.452,87.586,332.783Z" fill="#fff"/>
    <path id="Tracé_4" data-name="Tracé 4" d="M415.5,232h-24a7.5,7.5,0,0,0,0,15h24a7.5,7.5,0,0,0,0-15Z" fill="#fff"/>
    <path id="Tracé_5" data-name="Tracé 5" d="M215.5,247h144a7.5,7.5,0,0,0,0-15h-144a7.5,7.5,0,0,0,0,15Z" fill="#fff"/>
    <path id="Tracé_6" data-name="Tracé 6" d="M159.5,247h24a7.5,7.5,0,0,0,0-15h-24a7.5,7.5,0,0,0,0,15Z" fill="#fff"/>
    <path id="Tracé_7" data-name="Tracé 7" d="M455.5,272h-24a7.5,7.5,0,1,0,0,15h24a7.5,7.5,0,0,0,0-15Z" fill="#fff"/>
    <path id="Tracé_8" data-name="Tracé 8" d="M399.5,272h-16a7.5,7.5,0,1,0,0,15h16a7.5,7.5,0,0,0,0-15Z" fill="#fff"/>
    <path id="Tracé_9" data-name="Tracé 9" d="M167.5,272a7.5,7.5,0,0,0,0,15h184a7.5,7.5,0,0,0,0-15Z" fill="#fff"/>
    <path id="Tracé_10" data-name="Tracé 10" d="M383.5,312h-104a7.5,7.5,0,0,0,0,15h104a7.5,7.5,0,0,0,0-15Z" fill="#fff"/>
    <path id="Tracé_11" data-name="Tracé 11" d="M247.5,312h-16a7.5,7.5,0,0,0,0,15h16a7.5,7.5,0,0,0,0-15Z" fill="#fff"/>
    <path id="Tracé_12" data-name="Tracé 12" d="M191.5,312h-40a7.5,7.5,0,0,0,0,15h40a7.5,7.5,0,0,0,0-15Z" fill="#fff"/>
  </g>
</svg>
