<?xml version="1.0" encoding="utf-8"?><!-- Uploaded to: SVG Repo, www.svgrepo.com, Generator: SVG Repo Mixer Tools -->
<svg fill="#000000" width="800px" height="800px" viewBox="0 0 24 24" id="cheese" data-name="Flat Line" xmlns="http://www.w3.org/2000/svg" class="icon flat-line"><path id="secondary" d="M3,11H21a0,0,0,0,1,0,0v7a1,1,0,0,1-1,1H4a1,1,0,0,1-1-1V11A0,0,0,0,1,3,11Z" style="fill: rgb(44, 169, 188); stroke-width: 2;"></path><path id="primary" d="M21,11H3L17.46,5.07a1,1,0,0,1,1,.18A7.91,7.91,0,0,1,21,11m0,7V11H3v7a1,1,0,0,0,1,1H20A1,1,0,0,0,21,18Z" style="fill: none; stroke: rgb(0, 0, 0); stroke-linecap: round; stroke-linejoin: round; stroke-width: 2;"></path></svg>