<svg xmlns="http://www.w3.org/2000/svg" width="43.291" height="34.52" viewBox="0 0 43.291 34.52">
  <g id="jambon" transform="translate(-37.688 486.041)">
    <path id="path656" d="M79.879-470.932l-.008-.012-.158-.269c-5.922-9.969-31.008-16.451-40.253-.019-.1.171-.193.343-.285.515l-.017.032h0a13.049,13.049,0,0,0-1.472,6.036,13.127,13.127,0,0,0,13.126,13.127,13.084,13.084,0,0,0,8.594-3.207h0l.108-.1.23-.209c2.4-2.2,4.568-4.973,10.856-3.4v0a8.435,8.435,0,0,0,1.858.207,8.517,8.517,0,0,0,8.518-8.517,8.489,8.489,0,0,0-1.1-4.189" fill="#a76054"/>
    <path id="path658" d="M44.321-464.743H37.688v-4.608h6.633v4.608" fill="#a76054"/>
    <path id="path660" d="M74.346-466.395h6.633v-4.772H74.346Z" fill="#a76054"/>
    <path id="path662" d="M79.879-475.7l-.008-.012-.158-.271c-5.922-9.969-31.008-16.451-40.253-.019-.1.169-.193.341-.285.515l-.017.033h0a13.042,13.042,0,0,0-1.472,6.033,13.126,13.126,0,0,0,13.126,13.128,13.071,13.071,0,0,0,8.594-3.208l0,0,.108-.1.23-.208c2.4-2.205,4.568-4.976,10.856-3.4v0a8.433,8.433,0,0,0,1.858.207,8.519,8.519,0,0,0,8.518-8.519,8.484,8.484,0,0,0-1.1-4.188" fill="#c78650"/>
    <path id="path664" d="M50.815-458.807A10.627,10.627,0,0,1,40.2-469.422a10.485,10.485,0,0,1,1.189-4.877l.023-.043c.07-.137.145-.269.22-.4l.019-.033c4.069-7.233,11.1-8.753,16.279-8.753,8.88,0,17.1,4.583,19.621,8.825l.111.188.033.06a5.963,5.963,0,0,1,.769,2.94,6.011,6.011,0,0,1-6.005,6,5.94,5.94,0,0,1-1.313-.147l-.049-.009c-.308-.075-.6-.14-.867-.192l-.028-.008a13.665,13.665,0,0,0-3.113-.393,10.346,10.346,0,0,0-5.617,1.751l-.394.227a20.918,20.918,0,0,0-2.44,2.071l-.033.033c-.187.176-.372.352-.56.524l-.177.161-.108.093a10.608,10.608,0,0,1-6.946,2.593" fill="#f3e7d7"/>
    <path id="path666" d="M76.056-469.206a4.835,4.835,0,0,1-4.247,1.993,9.516,9.516,0,0,1-2.554-.376,9.631,9.631,0,0,0-2.61-.363,10.532,10.532,0,0,0-2.931.431,13.819,13.819,0,0,0-1.877.689q-.537.238-1.09.527a15.838,15.838,0,0,0-2.862,2.133,12.706,12.706,0,0,1-4.893,3.055,8.338,8.338,0,0,1-2.157.287h0a8.3,8.3,0,0,1-1.436-.125,7.9,7.9,0,0,1-.817-.184,9.083,9.083,0,0,1-5.071-3.717,7.941,7.941,0,0,1-1.339-4.167,8.131,8.131,0,0,1,.011-.856,10.075,10.075,0,0,1,.594-2.821,14.1,14.1,0,0,1,5.391-6.713c.229-.159.466-.312.707-.456a16.681,16.681,0,0,1,3.937-1.76l.26-.075c.315-.089.631-.171.948-.24a19.182,19.182,0,0,1,4.274-.479,23.371,23.371,0,0,1,9.921,2.372c.4.187.773.377,1.134.569h0a28.152,28.152,0,0,1,3.611,2.267c.292.215.56.429.807.641a11.677,11.677,0,0,1,1.21,1.163c2.615,2.908,1.692,5.235,1.078,6.205" fill="#e29eac"/>
    <path id="path668" d="M70.935-478.579a4.7,4.7,0,0,0-4.3.517,9.359,9.359,0,0,1-4.782,1.239H61.8c-3.524-.02-6.019-2.2-8.728-4.881.315-.089.632-.171.948-.24,2.448,2.388,4.739,4.265,7.785,4.284h.046a5.017,5.017,0,0,0,3.979-1.721,1.207,1.207,0,0,0-.548-1.853c.81-.315,5.471,1.5,5.655,2.656" fill="#f3e7d7"/>
    <path id="path670" d="M50.823-471.268c-1,1.711-3.006,2.608-5.6,2.608a14.079,14.079,0,0,1-3.052-.363,8.132,8.132,0,0,1,.011-.856c3.747.888,6.733.223,7.917-1.812,1.161-1.993.415-4.832-1.932-7.723.229-.159.466-.312.707-.456,2.522,3.155,3.279,6.316,1.951,8.6" fill="#f3e7d7"/>
    <path id="path672" d="M63.713-467.52a13.819,13.819,0,0,0-1.877.689,33.07,33.07,0,0,0-5.005.063c-4.5.615-6.976,2.615-7.434,5.813a7.9,7.9,0,0,1-.818-.184c.527-3.537,4.051-7.643,14.823-7.113,1.139.057-.752.665.311.732" fill="#f3e7d7"/>
    <path id="path674" d="M76.5-472.91c-1.642-3.376-5.983-2.316-7.809-1.643-3.771,1.385-3,3.544-8.951,4.3a24.9,24.9,0,0,1-2.746-4.907,7.464,7.464,0,0,1,2.177-.479c3.77.217,5.461.851,8.844.077,2.328-.535,4.554-1.579,3.521-2.637.893-.267,4.965,3.895,4.965,5.292" fill="#f3e7d7"/>
    <path id="path676" d="M46.429-478.042a2.2,2.2,0,0,1,3.056.532l.494-.8s-.943-1.676.411-2.389c.69-.363-.715-.575-.715-.575l-3.246,3.228" fill="#f3e7d7"/>
    <path id="path678" d="M44.934-469.5c-1.025-.076-2.881-.623-2.4-2.447.362-1.377-.848-.672-.848-.672l-.681,3.648,1.362,2.9s.457.012.238-.6c-.442-1.235.391-2.152,2.048-2.007s.28-.821.28-.821" fill="#f3e7d7"/>
    <path id="path680" d="M51.175-460.83c-1.032-.027-1.861-.712-1.15-2.115s-.327-1.012-.327-1.012-1.71,2.589-3.677,1.629c-2.13-1.04,1.956,1.925,1.956,1.925l3.2-.428" fill="#f3e7d7"/>
    <path id="path682" d="M59.447-465.463c.847-.745,1.085-1.479-.871-1.42-1.641.051.422-.768.422-.768a22.073,22.073,0,0,1,9.255-.164c2.344.572-8.267,2.643-8.267,2.643l-.539-.291" fill="#f3e7d7"/>
    <path id="path684" d="M56.036-480.105c-.823-.712-1.22-2.267,1.029-2.277s-.087-.653-.087-.653l-2.077.227-1.659.387-2.978,1.153.472.413s2.385-.776,3.57.333c1.054.984,1.73.417,1.73.417" fill="#f3e7d7"/>
    <path id="path686" d="M63.523-472.91c0,1.509-2.226,2.733-4.971,2.733s-4.97-1.224-4.97-2.733,2.226-2.732,4.97-2.732,4.971,1.223,4.971,2.732" fill="#f3e7d7"/>
    <path id="path688" d="M62-472.91c0,.908-1.52,1.644-3.394,1.644s-3.394-.736-3.394-1.644,1.52-1.643,3.394-1.643S62-473.818,62-472.91" fill="#d07188"/>
    <path id="path690" d="M70.458-468.754c-1.809,0-3.751-.391-4-1.2-.311-1.008,3.325-3.8,6.012-3.8a2.528,2.528,0,0,1,1.877.705c.774.788.419,3.213-1.233,3.911a7.535,7.535,0,0,1-2.655.387" fill="#db91a0"/>
    <path id="path692" d="M45.233-470.59a1.521,1.521,0,0,1-.911-.249c-1.07-.793,1.187-5.541,2.979-5.541,1.119,0,2.374,2.724,1.607,3.911a5.229,5.229,0,0,1-3.675,1.88" fill="#db91a0"/>
  </g>
</svg>
