<svg xmlns="http://www.w3.org/2000/svg" width="41.159" height="31.604" viewBox="0 0 41.159 31.604">
  <g id="Groupe_1" data-name="Groupe 1" transform="translate(-104.348 348.5)">
    <path id="path4008" d="M127.686-337.48v9.563a10.932,10.932,0,0,1-1.822,6.073,10.975,10.975,0,0,1-8.394,4.913,8.038,8.038,0,0,1-.8.035h-1.3a11.021,11.021,0,0,1-11.022-11.021v-9.563a11.019,11.019,0,0,1,11.022-11.02h1.3a11.018,11.018,0,0,1,11.021,11.02" fill="#837940"/>
    <path id="path4010" d="M117.47-316.931v-11.856l8.394,6.943a10.975,10.975,0,0,1-8.394,4.913" fill="#6e582d"/>
    <path id="path4012" d="M145.506-328.935c0,6.591-7.212,11.929-16.112,11.929a11.925,11.925,0,0,1-11.926-11.929,11.926,11.926,0,0,1,11.926-11.928c8.9,0,16.112,5.341,16.112,11.928" fill="#837940"/>
    <path id="path4014" d="M141.321-328.935a11.924,11.924,0,0,1-11.926,11.929,11.925,11.925,0,0,1-11.926-11.929,11.926,11.926,0,0,1,11.926-11.928,11.926,11.926,0,0,1,11.926,11.928" fill="#96ab4f"/>
    <path id="path4016" d="M140.148-328.934a10.753,10.753,0,0,1-10.753,10.753,10.753,10.753,0,0,1-10.753-10.753,10.753,10.753,0,0,1,10.753-10.755,10.753,10.753,0,0,1,10.753,10.755" fill="#8acc2e"/>
    <path id="path4018" d="M135.274-328.934a5.881,5.881,0,0,1-5.88,5.879,5.88,5.88,0,0,1-5.879-5.879,5.879,5.879,0,0,1,5.879-5.88,5.88,5.88,0,0,1,5.88,5.88" fill="#547964"/>
    <path id="path4020" d="M133.037-328.934a3.642,3.642,0,0,1-3.643,3.641,3.642,3.642,0,0,1-3.641-3.641,3.642,3.642,0,0,1,3.641-3.643,3.643,3.643,0,0,1,3.643,3.643" fill="#e2eac8"/>
    <path id="path4022" d="M135.546-328.79a.547.547,0,0,1-.547.547.547.547,0,0,1-.547-.547.546.546,0,0,1,.547-.547.546.546,0,0,1,.547.547" fill="#3e4445"/>
    <path id="path4024" d="M132.408-333.571a.467.467,0,0,1-.466.467.467.467,0,0,1-.467-.467.469.469,0,0,1,.467-.467.469.469,0,0,1,.466.467" fill="#3e4445"/>
    <path id="path4026" d="M128.315-334.6a.55.55,0,0,1-.547.549.549.549,0,0,1-.547-.549.549.549,0,0,1,.547-.548.55.55,0,0,1,.547.548" fill="#3e4445"/>
    <path id="path4028" d="M126.147-332.415a.394.394,0,0,1-.394.393.4.4,0,0,1-.394-.393.393.393,0,0,1,.394-.393.392.392,0,0,1,.394.393" fill="#3e4445"/>
    <path id="path4030" d="M124.343-327.858a.546.546,0,0,1-.547.547.546.546,0,0,1-.547-.547.547.547,0,0,1,.547-.547.547.547,0,0,1,.547.547" fill="#3e4445"/>
    <path id="path4032" d="M126.35-325.527a.344.344,0,0,1-.345.344.345.345,0,0,1-.345-.344.348.348,0,0,1,.345-.347.347.347,0,0,1,.345.347" fill="#3e4445"/>
    <path id="path4034" d="M127.4-324.535l-.182.183-.182-.183.182-.181.182.181" fill="#3e4445"/>
    <path id="path4036" d="M130.138-323.543a.609.609,0,0,1-.608.609.61.61,0,0,1-.608-.609.608.608,0,0,1,.608-.607.607.607,0,0,1,.608.607" fill="#3e4445"/>
    <path id="path4038" d="M133.553-325.71a.418.418,0,0,1-.417.417.418.418,0,0,1-.417-.417.417.417,0,0,1,.417-.416.418.418,0,0,1,.417.416" fill="#3e4445"/>
    <path id="path4040" d="M134.869-326.126a.416.416,0,0,1-.416.416.417.417,0,0,1-.417-.416.416.416,0,0,1,.417-.417.415.415,0,0,1,.416.417" fill="#3e4445"/>
    <path id="path4042" d="M135.041-331a.488.488,0,0,1-.487.487.488.488,0,0,1-.487-.487.486.486,0,0,1,.487-.485.486.486,0,0,1,.487.485" fill="#3e4445"/>
    <path id="path4044" d="M134.008-329.943a.244.244,0,0,1-.244.241.242.242,0,0,1-.241-.241.243.243,0,0,1,.241-.245.244.244,0,0,1,.244.245" fill="#3e4445"/>
    <path id="path4046" d="M127.18-332.809a.244.244,0,0,1-.243.243.244.244,0,0,1-.244-.243.242.242,0,0,1,.244-.241.242.242,0,0,1,.243.241" fill="#3e4445"/>
    <path id="path4048" d="M124.81-331.483a.384.384,0,0,1-.385.383.383.383,0,0,1-.384-.383.384.384,0,0,1,.384-.385.386.386,0,0,1,.385.385" fill="#3e4445"/>
  </g>
</svg>
