<svg xmlns="http://www.w3.org/2000/svg" width="28.669" height="38.611" viewBox="0 0 28.669 38.611">
  <g id="Groupe_3" data-name="Groupe 3" transform="translate(-296.649 541.728)">
    <path id="path562" d="M320.069-538.592l-5.245,8.293v27.181h10.495V-530.3l-5.249-8.293" fill="#e5e6ea"/>
    <path id="path564" d="M323.465-512.8v7.617h-.991v-1.219h-4.555v1.219h-.989V-512.8h6.535" fill="#b4b9d2"/>
    <path id="path566" d="M302.263-541.728v3.136l-5.615,8.293v27.181h18.175V-530.3l5.245-8.293v-3.136H302.263" fill="#edeef0"/>
    <path id="path568" d="M325.318-503.117H314.823V-530.3l5.245-8.293,5.249,8.293v27.181m-7.4-3.288h4.555v1.219h.991V-512.8H316.93v7.617h.989v-1.219m-.093-28.64-3,4.747h9.724l-6.721-4.747" fill="#a3a9c2"/>
    <path id="path570" d="M323.465-505.187h-.991v-1.219h-4.555v1.219h-.989V-512.8h6.535v7.617" fill="#828baf"/>
    <path id="path572" d="M324.547-530.3h-9.724l3-4.747,6.721,4.747" fill="#7781a1"/>
    <path id="path574" d="M310.5-518.771a5.223,5.223,0,0,1-5.223,5.223,5.223,5.223,0,0,1-5.223-5.223,5.223,5.223,0,0,1,5.223-5.223,5.223,5.223,0,0,1,5.223,5.223" fill="#7ac755"/>
  </g>
</svg>
