<svg xmlns="http://www.w3.org/2000/svg" width="42.748" height="34.962" viewBox="0 0 42.748 34.962">
  <g id="Groupe_2" data-name="Groupe 2" transform="translate(-162.945 256.825)">
    <path id="path4152" d="M177.862-245.4a9.86,9.86,0,0,0,8.159-3.1,9.389,9.389,0,0,0,2.219-8.289,9.849,9.849,0,0,0-8.148,3.1,9.408,9.408,0,0,0-2.229,8.284" fill="#84b24c"/>
    <path id="path4154" d="M185.976-248.45l.012-.013-.012.013m.023-.025.023-.024.048-.055-.048.055-.023.024m.1-.108a9.252,9.252,0,0,0,1.853-3.181,9.252,9.252,0,0,1-1.853,3.181m1.856-3.191.008-.023-.008.023m.483-2.568v0m0-.02a9.745,9.745,0,0,0-.2-2.421l0,0a9.832,9.832,0,0,1,.193,2.424" fill="#dbdac6"/>
    <path id="path4156" d="M185.965-248.439a14.533,14.533,0,0,0-3.635-1.86l1.6-1.752,2.976-.445-2.232-.3,3.568-3.984a9.745,9.745,0,0,1,.2,2.421.017.017,0,0,1,0,.008v.012a9.443,9.443,0,0,1-.475,2.545l-.008.023a.034.034,0,0,0,0,.009,9.252,9.252,0,0,1-1.853,3.181l-.027.029-.048.055-.023.024-.011.012-.012.013a.081.081,0,0,0-.011.011" fill="#759d3f"/>
    <path id="path4158" d="M192.176-236.478a14.546,14.546,0,0,1-2.249,7.792,14.591,14.591,0,0,1-9.516,6.541,14.549,14.549,0,0,1-2.852.281,14.609,14.609,0,0,1-14.613-14.615A14.612,14.612,0,0,1,177.558-251.1a14.613,14.613,0,0,1,14.617,14.617" fill="#e78330"/>
    <path id="path4160" d="M205.693-234.617c0,7.047-5.861,12.753-15.379,12.753a12.75,12.75,0,0,1-12.755-12.753,12.752,12.752,0,0,1,12.755-12.755c9.517,0,15.379,5.711,15.379,12.755" fill="#ed8c21"/>
    <path id="path4162" d="M180.41-222.145c-2.541-3.761-2.852-9.243-2.852-11.745l.023.009a12.748,12.748,0,0,0,6.585,10.443,14.541,14.541,0,0,1-3.756,1.293h0" fill="#cb6d2a"/>
    <path id="path4164" d="M184.166-223.438h0a12.748,12.748,0,0,1-6.585-10.443l12.345,5.195a14.646,14.646,0,0,1-5.76,5.248" fill="#d37421"/>
    <path id="path4166" d="M203.069-234.617a12.75,12.75,0,0,1-12.755,12.753,12.75,12.75,0,0,1-12.755-12.753,12.752,12.752,0,0,1,12.755-12.755,12.753,12.753,0,0,1,12.755,12.755" fill="#f5ae13"/>
    <path id="path4168" d="M202.3-234.619c0,.216-.005.433-.017.647a11.923,11.923,0,0,1-1.335,4.888c-.181.351-.379.681-.588,1.008a12,12,0,0,1-3.583,3.555c-.325.208-.657.4-1.008.583a11.892,11.892,0,0,1-4.875,1.292c-.193.011-.385.017-.577.017s-.391-.007-.588-.017a11.816,11.816,0,0,1-4.864-1.292c-.349-.177-.688-.375-1.013-.583a11.953,11.953,0,0,1-3.583-3.555c-.209-.327-.408-.657-.588-1.008a11.9,11.9,0,0,1-1.333-4.888c-.013-.213-.019-.431-.019-.647,0-.175.005-.344.019-.517a11.693,11.693,0,0,1,1.287-4.909,10,10,0,0,1,.575-1.016,12.088,12.088,0,0,1,3.584-3.617c.327-.208.659-.405,1.008-.583a11.81,11.81,0,0,1,4.928-1.325c.2-.013.391-.019.588-.019s.384.005.577.019a11.755,11.755,0,0,1,4.933,1.325c.349.177.681.375,1.008.583a12.063,12.063,0,0,1,3.581,3.617,9.313,9.313,0,0,1,.577,1.016,11.735,11.735,0,0,1,1.288,4.909c.012.173.017.343.017.517" fill="#f4eda3"/>
    <path id="path4170" d="M192.61-243.669l-1.881,7.076-.069.265-.056.191-.272.143-.272-.133-.005-.009-.057-.191v-.008l-.076-.263-1.905-7.071a1.048,1.048,0,0,1,.927-1.349l2.74-.007a1.052,1.052,0,0,1,.928,1.356" fill="#f5b012"/>
    <path id="path4172" d="M192.61-225.567l-1.881-7.075-.069-.265-.056-.188-.272-.145-.272.132-.005.013-.057.188v.007l-.076.267-1.905,7.067a1.051,1.051,0,0,0,.927,1.352l2.74.005a1.054,1.054,0,0,0,.928-1.357" fill="#f5b012"/>
    <path id="path4174" d="M187.777-243.6l1.909,7.068.072.263.045.193-.163.263-.3.02-.012-.007-.143-.139,0,0-.2-.192-5.184-5.169a1.049,1.049,0,0,1,.128-1.633l2.369-1.375a1.051,1.051,0,0,1,1.481.711" fill="#f5b012"/>
    <path id="path4176" d="M196.828-227.926l-5.167-5.188-.192-.195-.144-.136-.307.011-.169.249v.013l.045.193,0,.005.067.268,1.884,7.075a1.051,1.051,0,0,0,1.477.707l2.375-1.365a1.051,1.051,0,0,0,.127-1.637" fill="#f5b012"/>
    <path id="path4178" d="M183.625-241.131l5.185,5.167.195.192.136.143-.009.308-.252.169h-.013l-.192-.044-.007-.005-.267-.065-7.075-1.885a1.05,1.05,0,0,1-.705-1.479l1.364-2.376a1.053,1.053,0,0,1,1.64-.124" fill="#f5b012"/>
    <path id="path4180" d="M199.3-232.079l-7.068-1.909-.264-.073-.193-.047-.261.164-.021.3.008.013.136.143.005,0,.192.2L197-228.1a1.054,1.054,0,0,0,1.635-.128l1.375-2.369a1.051,1.051,0,0,0-.711-1.481" fill="#f5b012"/>
    <path id="path4182" d="M181.264-236.913l7.075,1.88.264.068.191.057.145.273-.133.271-.012.005-.189.057H188.6l-.264.075-7.068,1.907a1.049,1.049,0,0,1-1.351-.927l-.007-2.74a1.052,1.052,0,0,1,1.357-.927" fill="#f5b012"/>
    <path id="path4184" d="M199.363-236.913l-7.073,1.88-.265.068-.191.057-.144.273.132.271.012.005.191.057h.005l.267.075,7.067,1.907a1.05,1.05,0,0,0,1.351-.927l.007-2.74a1.051,1.051,0,0,0-1.357-.927" fill="#f5b012"/>
    <path id="path4186" d="M181.328-232.079l7.068-1.909.264-.073.193-.047.261.164.02.3-.008.013-.136.143-.005,0-.191.2-5.169,5.185a1.051,1.051,0,0,1-1.633-.128l-1.375-2.367a1.049,1.049,0,0,1,.711-1.481" fill="#f5b012"/>
    <path id="path4188" d="M197-241.131l-5.187,5.167-.195.192-.136.143.011.308.251.169h.013l.193-.047.005,0,.267-.068,7.075-1.883a1.05,1.05,0,0,0,.705-1.479l-1.364-2.376a1.052,1.052,0,0,0-1.639-.124" fill="#f5b012"/>
    <path id="path4190" d="M183.8-227.929l5.165-5.185.192-.195.145-.136.307.011.169.249v.013l-.045.193,0,.005-.067.268-1.884,7.073a1.048,1.048,0,0,1-1.477.705l-2.376-1.363a1.052,1.052,0,0,1-.124-1.64" fill="#f5b012"/>
    <path id="path4192" d="M192.85-243.6l-1.909,7.068-.073.263-.044.193.161.26.3.021.011-.008.144-.136,0-.005.2-.189,5.185-5.169a1.051,1.051,0,0,0-.128-1.633l-2.369-1.375a1.051,1.051,0,0,0-1.481.711" fill="#f5b012"/>
    <path id="path4194" d="M170.03-242.557a1.093,1.093,0,0,1-1.091,1.092,1.093,1.093,0,0,1-1.092-1.092,1.091,1.091,0,0,1,1.092-1.091,1.09,1.09,0,0,1,1.091,1.091" fill="#f5ae13"/>
    <path id="path4196" d="M171.45-240.1a.487.487,0,0,1-.485.487.487.487,0,0,1-.488-.487.485.485,0,0,1,.488-.484.484.484,0,0,1,.485.484" fill="#f5ae13"/>
    <path id="path4198" d="M173.824-247.134a.746.746,0,0,1-.747.747.747.747,0,0,1-.749-.747.749.749,0,0,1,.749-.748.748.748,0,0,1,.747.748" fill="#f5ae13"/>
  </g>
</svg>
