<svg xmlns="http://www.w3.org/2000/svg" width="28.064" height="40.078" viewBox="0 0 28.064 40.078">
  <g id="salade" transform="translate(-48.889 72.085)">
    <path id="path4474" d="M65.181-33.56l-2.122.732-5.761.82a60.378,60.378,0,0,1-6.825-14.26,36.633,36.633,0,0,1-1.3-5.669A20.582,20.582,0,0,1,50.653-63.95,20.02,20.02,0,0,1,58.7-56.262l.019.031c5.857,9.458,6.458,22.672,6.458,22.672" fill="#8dae4d"/>
    <path id="path4476" d="M60.663-33.56l2.122.732,5.76.82a60.464,60.464,0,0,0,6.825-14.26,36.743,36.743,0,0,0,1.3-5.669A20.575,20.575,0,0,0,75.19-63.95a20.017,20.017,0,0,0-8.051,7.688l-.02.031c-5.856,9.458-6.457,22.672-6.457,22.672" fill="#8dae4d"/>
    <path id="path4478" d="M61.83-32.008h6.718c2.347-5.033,10.808-25.161,2.386-37.6C56.636-59.924,59.28-32.5,59.28-32.5l2.549.489" fill="#739c51"/>
    <path id="path4480" d="M66.642-32.5l-2.544.492h-6.72A69.879,69.879,0,0,1,51.9-49.424a42.462,42.462,0,0,1-.565-6.693,23.752,23.752,0,0,1,3.653-13.49,23.1,23.1,0,0,1,7.951,10.1l.018.04C68.108-47.7,66.642-32.5,66.642-32.5" fill="#739c51"/>
    <path id="path4482" d="M58.793-61.314l-3.216-6.191,2.589,7.519Z" fill="#a0b84b"/>
    <path id="path4484" d="M67.082-61.314,70.3-67.505l-2.587,7.519Z" fill="#a0b84b"/>
    <path id="path4486" d="M67.629-32.008c.706-2.525,7.417-27.987-4.672-40.077h0c-12.09,12.091-5.379,37.552-4.675,40.077h9.348" fill="#8dae4d"/>
    <path id="path4488" d="M68.22-34.3s1.071-5.115,1.544-9.388a63.4,63.4,0,0,0,.309-8.925c-.592,5.037-2.294,18.434-4.6,18.434-1.986,0-2.417-19.843-2.5-25.328-.012-.878-.016-1.388-.016-1.388s-.007.51-.018,1.388c-.083,5.485-.516,25.328-2.5,25.328-2.306,0-4.008-13.4-4.6-18.434a63.262,63.262,0,0,0,.307,8.925c.473,4.273,1.543,9.388,1.543,9.388-2.6-1.521-5.791-15.122-5.791-15.122a69.879,69.879,0,0,0,5.478,17.416H68.534a69.885,69.885,0,0,0,5.478-17.416S70.824-35.823,68.22-34.3" fill="#bfd87b"/>
  </g>
</svg>
