<?xml version="1.0" encoding="iso-8859-1"?>
<!-- Uploaded to: SVG Repo, www.svgrepo.com, Generator: SVG Repo Mixer Tools -->
<svg height="800px" width="800px" version="1.1" id="Layer_1" xmlns="http://www.w3.org/2000/svg" xmlns:xlink="http://www.w3.org/1999/xlink" 
	 viewBox="0 0 512 512" xml:space="preserve">
<path style="fill:#8C5549;" d="M503.844,174.474c0-49.824-40.538-90.361-90.365-90.361h-11.026H195.007H178.41
	c-27.55,0-53.509,6.934-76.236,19.141C46.389,131.569,8.156,189.48,8.156,256.326c0,94.752,76.812,171.562,171.564,171.562
	c83.266,0,152.669-59.323,168.273-138.006c0.644-0.538,1.285-1.077,1.952-1.609h52.509c56.001,0,101.39-45.39,101.39-101.391v-1.379
	c0-1.919-0.066-3.82-0.17-5.709C503.777,178.03,503.844,176.262,503.844,174.474z M180.17,305.183
	c-27.164,0-49.183-22.019-49.183-49.184c0-27.164,22.019-49.183,49.183-49.183c27.162,0,49.181,22.019,49.181,49.183
	C229.35,283.164,207.331,305.183,180.17,305.183z"/>
<g style="opacity:0.15;">
	<path style="fill:#202020;" d="M33.665,256.326c0-66.846,38.231-124.757,94.018-153.073c22.726-12.207,48.687-19.141,76.237-19.141
		h-10.271h-16.597c-27.55,0-53.509,6.934-76.236,19.141C45.03,131.569,6.797,189.48,6.797,256.326
		c0,94.752,76.812,171.562,171.564,171.562c4.505,0,8.967-0.184,13.386-0.525C103.297,420.487,33.665,346.541,33.665,256.326z"/>
</g>
<path style="fill:#FFF1CE;" d="M180.17,206.817c-27.164,0-49.183,22.019-49.183,49.183c0,27.165,22.019,49.184,49.183,49.184
	c27.162,0,49.181-22.019,49.181-49.184C229.35,228.836,207.331,206.817,180.17,206.817z M180.17,273.328
	c-9.573,0-17.33-7.757-17.33-17.329c0-9.571,7.757-17.328,17.33-17.328c9.571,0,17.328,7.757,17.328,17.328
	C197.497,265.572,189.741,273.328,180.17,273.328z"/>
<g>
	<path style="fill:#202020;" d="M512,174.474c0-54.323-44.196-98.518-98.521-98.518H178.411c-27.871,0-55.536,6.939-80.012,20.066
		c-29.117,14.798-53.69,37.27-71.064,64.986C9.452,189.538,0,222.498,0,256.325c0,99.097,80.622,179.718,179.72,179.718
		c83.829,0,156.714-58.413,175.217-139.616h47.517C462.858,296.427,512,247.284,512,186.88v-1.379c0-1.786-0.052-3.653-0.159-5.698
		C511.949,177.855,512,176.108,512,174.474z M43.279,346.139l110.343-164.45c2.511-3.74,1.513-8.807-2.228-11.316
		c-3.742-2.513-8.809-1.513-11.316,2.228L34.136,330.491c-11.392-22.269-17.824-47.48-17.824-74.166
		c0-61.894,34.316-117.761,89.556-145.8c0.057-0.028,0.113-0.058,0.167-0.087c4.226-2.27,8.558-4.331,12.977-6.188L27.114,241.211
		c-2.511,3.74-1.513,8.807,2.228,11.316c1.395,0.936,2.973,1.384,4.537,1.384c2.627,0,5.207-1.267,6.779-3.613L143.677,96.766
		c0.123-0.184,0.231-0.372,0.337-0.562c11.251-2.59,22.802-3.934,34.397-3.934h15.565l-38.666,57.626
		c-2.511,3.74-1.513,8.807,2.228,11.316c1.395,0.936,2.973,1.384,4.537,1.384c2.627,0,5.207-1.267,6.779-3.613l44.764-66.715h47.286
		l-71.85,107.084c-2.896-0.452-5.863-0.692-8.885-0.692c-31.616,0-57.339,25.722-57.339,57.339
		c0,31.395,25.366,56.966,56.678,57.323l-62.89,93.728c-12.218-5.134-23.684-11.712-34.187-19.519l49.873-74.33
		c2.511-3.741,1.513-8.807-2.228-11.316c-3.742-2.512-8.81-1.513-11.316,2.228L69.78,377.114
		C59.718,367.947,50.808,357.537,43.279,346.139z M180.17,297.027c-22.623,0-41.027-18.405-41.027-41.028
		s18.404-41.027,41.027-41.027c22.622,0,41.025,18.404,41.025,41.027C221.194,278.622,202.791,297.027,180.17,297.027z
		 M495.688,185.502v1.379c0,44.027-30.684,80.998-71.784,90.717l37.33-55.637c2.51-3.74,1.512-8.807-2.229-11.317
		c-3.742-2.509-8.809-1.512-11.317,2.229l-45.115,67.241c-0.039,0-0.078,0.003-0.117,0.003h-52.509c-1.851,0-3.647,0.63-5.094,1.786
		c-0.675,0.54-1.328,1.085-1.979,1.631l-0.113,0.095c-1.428,1.195-2.404,2.842-2.767,4.669
		c-6.853,34.553-24.473,64.808-48.94,87.552l34.088-50.805c2.51-3.741,1.512-8.807-2.229-11.316
		c-3.741-2.512-8.809-1.514-11.316,2.228l-55.841,83.223c-0.482,0.718-0.831,1.484-1.06,2.272
		c-18.226,9.441-38.365,15.53-59.517,17.541l55.154-82.2c2.511-3.741,1.513-8.807-2.228-11.316
		c-3.741-2.512-8.809-1.515-11.316,2.228l-60.274,89.831c-0.456,0.679-0.792,1.402-1.021,2.144
		c-14.931-0.381-29.366-2.785-43.053-6.929l69.621-103.761c20.785-8.62,35.445-29.12,35.445-52.987
		c0-22.618-13.167-42.215-32.237-51.54l75.277-112.19h47.281l-85.41,127.297c-2.511,3.74-1.513,8.807,2.228,11.317
		c1.395,0.935,2.973,1.383,4.537,1.383c2.627,0,5.207-1.268,6.779-3.613L347.47,92.272h47.286L252.586,304.158
		c-2.511,3.74-1.513,8.807,2.228,11.316c1.395,0.936,2.973,1.384,4.537,1.384c2.627,0,5.207-1.267,6.779-3.613L414.385,92.292
		c14.533,0.159,28.163,4.108,39.967,10.903L351.255,256.85c-2.511,3.741-1.513,8.807,2.228,11.316
		c1.395,0.936,2.974,1.384,4.537,1.384c2.627,0,5.207-1.267,6.779-3.613l102.822-153.246c10.733,9.416,18.993,21.571,23.688,35.37
		c-0.294,0.315-0.573,0.65-0.82,1.02l-28.461,42.418c-2.511,3.74-1.513,8.807,2.228,11.316c1.395,0.936,2.973,1.384,4.537,1.384
		c2.627,0,5.207-1.267,6.779-3.613l20.02-29.838c0.055,1.235,0.095,2.475,0.095,3.723c0,1.444-0.051,3.03-0.157,4.847
		c-0.018,0.307-0.018,0.613-0.001,0.921C495.638,182.165,495.688,183.886,495.688,185.502z"/>
	<path style="fill:#202020;" d="M180.17,230.516c-14.053,0-25.486,11.433-25.486,25.484c0,14.052,11.433,25.485,25.486,25.485
		c14.051,0,25.484-11.433,25.484-25.485C205.653,241.949,194.222,230.516,180.17,230.516z M180.17,265.172
		c-5.058,0-9.174-4.115-9.174-9.173c0-5.057,4.115-9.172,9.174-9.172c5.057,0,9.172,4.114,9.172,9.172
		C189.341,261.057,185.227,265.172,180.17,265.172z"/>
</g>
</svg>